Coordinates
version=1
nRows=37
nColumns=38
inDegrees=no

Units are S.I. units (second, meters, Newtons, ...)
If the header above contains a line with 'inDegrees', this indicates whether rotational values are in degrees (yes) or radians (no).

endheader
time	pelvis_tilt	pelvis_list	pelvis_rotation	pelvis_tx	pelvis_ty	pelvis_tz	hip_flexion_r	hip_adduction_r	hip_rotation_r	knee_angle_r	ankle_angle_r	subtalar_angle_r	mtp_angle_r	hip_flexion_l	hip_adduction_l	hip_rotation_l	knee_angle_l	ankle_angle_l	subtalar_angle_l	mtp_angle_l	lumbar_extension	lumbar_bending	lumbar_rotation	arm_flex_r	arm_add_r	arm_rot_r	elbow_flex_r	pro_sup_r	wrist_flex_r	wrist_dev_r	arm_flex_l	arm_add_l	arm_rot_l	elbow_flex_l	pro_sup_l	wrist_flex_l	wrist_dev_l
6.49	-2.88783	1.3597	-1.74506	0.76945	0.723429	0.964174	-0.382437	0.0139832	-0.178285	0.0101535	0.0735275	0	0	-0.106815	-0.0622015	-0.354439	0.375705	0.154766	0	0	-0.604554	-0.0435679	0.0548474	-0.0917334	-0.570212	0.670553	1.38819	1.22005	0	0	-0.173868	-0.619819	0.366224	1.51104	1.44722	0	0
6.5	-2.88771	1.35763	-1.74199	0.768559	0.72545	0.963628	-0.387086	0.0139557	-0.179425	0.0114835	0.0782963	0	0	-0.115211	-0.0509846	-0.354724	0.325396	0.146236	0	0	-0.600528	-0.0417167	0.0537007	-0.101428	-0.569525	0.663334	1.38951	1.22352	0	0	-0.178973	-0.619071	0.36477	1.51298	1.44509	0	0
6.51	-2.88842	1.35538	-1.73758	0.767597	0.72742	0.963012	-0.39178	0.0142896	-0.18045	0.0132368	0.0836487	0	0	-0.123569	-0.0404349	-0.352385	0.281796	0.126141	0	0	-0.596618	-0.0395305	0.0521267	-0.111288	-0.568841	0.655988	1.39114	1.22671	0	0	-0.184178	-0.618855	0.363245	1.51587	1.44343	0	0
6.52	-2.89317	1.35304	-1.72867	0.766675	0.729311	0.962348	-0.396136	0.0157859	-0.182295	0.0159755	0.0891421	0	0	-0.129672	-0.0343876	-0.352395	0.255633	0.0939144	0	0	-0.593018	-0.0365424	0.0502917	-0.120584	-0.568558	0.649513	1.39331	1.22909	0	0	-0.189737	-0.619265	0.361235	1.52006	1.44252	0	0
6.53	-2.90027	1.34945	-1.71812	0.76598	0.731046	0.961856	-0.401242	0.0178034	-0.183619	0.0192094	0.0934278	0	0	-0.133804	-0.0334125	-0.358861	0.249625	0.0631442	0	0	-0.591201	-0.0340027	0.0487056	-0.128601	-0.56833	0.644124	1.39556	1.23062	0	0	-0.19514	-0.620353	0.358977	1.52547	1.44209	0	0
6.54	-2.90317	1.34303	-1.7125	0.7655	0.732596	0.961818	-0.408411	0.0183897	-0.185181	0.0232271	0.0971486	0	0	-0.139787	-0.0328715	-0.362674	0.254354	0.057666	0	0	-0.59287	-0.0335281	0.0466159	-0.135468	-0.567561	0.63893	1.39776	1.22848	0	0	-0.200455	-0.622196	0.356174	1.53153	1.44287	0	0
6.55	-2.90335	1.33458	-1.70987	0.765217	0.734142	0.962106	-0.417264	0.0180853	-0.187481	0.0279138	0.100759	0	0	-0.148249	-0.0310014	-0.357449	0.260937	0.0703863	0	0	-0.596892	-0.034531	0.0441673	-0.142769	-0.565739	0.631668	1.4001	1.23081	0	0	-0.205944	-0.62492	0.353189	1.53813	1.44175	0	0
6.56	-2.89848	1.32716	-1.71075	0.765527	0.735113	0.962624	-0.423129	0.0180798	-0.19089	0.0344266	0.103856	0	0	-0.158054	-0.0283425	-0.352783	0.258291	0.0719963	0	0	-0.601562	-0.0372883	0.0396035	-0.14826	-0.560464	0.622949	1.40006	1.2358	0	0	-0.210771	-0.629981	0.349004	1.54537	1.43996	0	0
6.57	-2.91544	1.31837	-1.69496	0.764961	0.73758	0.962488	-0.434241	0.0199963	-0.19083	0.0382654	0.10793	0	0	-0.167545	-0.0295622	-0.330616	0.266945	0.0789955	0	0	-0.604136	-0.0351071	0.0423674	-0.16184	-0.560605	0.608922	1.40717	1.24633	0	0	-0.219086	-0.630713	0.34603	1.55126	1.43777	0	0
6.58	-2.92173	1.31335	-1.68728	0.764851	0.739151	0.962376	-0.438756	0.0214883	-0.192476	0.0441142	0.111128	0	0	-0.17229	-0.0313893	-0.318991	0.271057	0.0792841	0	0	-0.604888	-0.0350233	0.0418743	-0.172032	-0.557689	0.596371	1.41148	1.25111	0	0	-0.225209	-0.633317	0.342528	1.5569	1.4368	0	0
6.59	-2.92313	1.30929	-1.68416	0.764689	0.740451	0.962232	-0.44097	0.0216318	-0.195894	0.0516728	0.115729	0	0	-0.174015	-0.0334458	-0.312119	0.277812	0.0796963	0	0	-0.605282	-0.0358984	0.0414064	-0.184114	-0.553809	0.579407	1.41712	1.25773	0	0	-0.229569	-0.636185	0.340161	1.56276	1.43548	0	0
6.6	-2.92244	1.30616	-1.68354	0.764535	0.741536	0.962092	-0.441098	0.020867	-0.199729	0.0607391	0.121077	0	0	-0.174278	-0.0356682	-0.31144	0.285515	0.0820373	0	0	-0.605277	-0.0373589	0.0417692	-0.197383	-0.549056	0.559134	1.42298	1.26666	0	0	-0.232234	-0.639085	0.339103	1.56849	1.43373	0	0
6.61	-2.92121	1.30305	-1.68457	0.764367	0.74255	0.96199	-0.440932	0.0192164	-0.202791	0.0700342	0.1266	0	0	-0.176121	-0.0371997	-0.315926	0.290749	0.0855619	0	0	-0.605454	-0.0392206	0.0436012	-0.211729	-0.544335	0.536852	1.42943	1.27805	0	0	-0.233436	-0.641626	0.339524	1.57388	1.4314	0	0
6.62	-2.9208	1.29976	-1.68572	0.764061	0.743597	0.961903	-0.441465	0.0172332	-0.205283	0.0783643	0.131594	0	0	-0.180161	-0.0381319	-0.32314	0.293466	0.0887871	0	0	-0.605755	-0.0408025	0.0467362	-0.227035	-0.53996	0.513255	1.43633	1.2915	0	0	-0.233812	-0.643283	0.340785	1.57833	1.42841	0	0
6.63	-2.92068	1.29607	-1.68716	0.763738	0.744763	0.961837	-0.44359	0.015298	-0.207229	0.0846418	0.135792	0	0	-0.187283	-0.0376394	-0.329412	0.291916	0.091618	0	0	-0.606311	-0.042411	0.0506191	-0.243241	-0.534755	0.487787	1.44307	1.30973	0	0	-0.233942	-0.644694	0.342533	1.58272	1.4238	0	0
6.64	-2.92041	1.29168	-1.6891	0.763431	0.745917	0.961841	-0.447342	0.0132585	-0.20801	0.0891789	0.139514	0	0	-0.197257	-0.0353628	-0.333063	0.285974	0.0931875	0	0	-0.607871	-0.0441232	0.0559255	-0.262677	-0.526239	0.452295	1.44968	1.37367	0	0	-0.231973	-0.64671	0.34736	1.58794	1.40761	0	0
6.65	-2.91997	1.28777	-1.6907	0.762994	0.74693	0.96187	-0.451078	0.0114415	-0.208257	0.0925445	0.142023	0	0	-0.206661	-0.0324722	-0.33548	0.279122	0.0936396	0	0	-0.608934	-0.0451062	0.0594829	-0.277217	-0.520786	0.427698	1.45699	1.39371	0	0	-0.23187	-0.64725	0.348137	1.59249	1.40444	0	0
6.66	-2.91733	1.28382	-1.69388	0.762492	0.747769	0.961979	-0.455082	0.00924843	-0.209045	0.0949976	0.143468	0	0	-0.215784	-0.0287546	-0.336326	0.271548	0.0928469	0	0	-0.610328	-0.04624	0.0627077	-0.29179	-0.514658	0.401457	1.46609	1.41795	0	0	-0.230145	-0.647663	0.349795	1.59707	1.39916	0	0
6.67	-2.90709	1.28184	-1.70152	0.7625	0.747813	0.96231	-0.456129	0.00749979	-0.210971	0.0966668	0.143271	0	0	-0.222902	-0.0246358	-0.342918	0.258959	0.0871082	0	0	-0.611573	-0.0491522	0.0618464	-0.300733	-0.506914	0.380582	1.47347	1.43123	0	0	-0.226936	-0.650003	0.349198	1.60174	1.39568	0	0
6.68	-2.91063	1.27881	-1.69954	0.761481	0.749163	0.96214	-0.461798	0.00619792	-0.210196	0.0956752	0.144681	0	0	-0.22802	-0.0226625	-0.333911	0.260303	0.0911108	0	0	-0.610358	-0.0477698	0.0663129	-0.314596	-0.505379	0.35979	1.4867	1.44001	0	0	-0.226936	-0.647648	0.348256	1.60601	1.39394	0	0
6.69	-2.90844	1.27751	-1.7008	0.761068	0.749703	0.962166	-0.464117	0.00556727	-0.209847	0.0954074	0.144814	0	0	-0.231529	-0.0207308	-0.331799	0.256783	0.0907985	0	0	-0.609566	-0.0481309	0.0674766	-0.323906	-0.501588	0.341054	1.49835	1.44755	0	0	-0.225944	-0.64763	0.344299	1.61254	1.39232	0	0
6.7	-2.90691	1.27721	-1.70102	0.760662	0.750224	0.962111	-0.465763	0.00557511	-0.209817	0.0944042	0.144436	0	0	-0.232985	-0.0197616	-0.328508	0.255304	0.0906931	0	0	-0.607942	-0.0481604	0.0678686	-0.332048	-0.498287	0.322487	1.51096	1.4553	0	0	-0.225727	-0.647317	0.33827	1.62165	1.39043	0	0
6.71	-2.90604	1.27753	-1.70076	0.76028	0.750814	0.961987	-0.467283	0.00591258	-0.209899	0.0923962	0.143941	0	0	-0.233186	-0.0192344	-0.325154	0.255155	0.091085	0	0	-0.605592	-0.0481013	0.0679703	-0.339179	-0.495704	0.304586	1.52423	1.46173	0	0	-0.226249	-0.646579	0.330501	1.63177	1.38754	0	0
6.72	-2.90356	1.27755	-1.70256	0.759939	0.751402	0.961918	-0.469416	0.00561641	-0.2103	0.0894185	0.143489	0	0	-0.23332	-0.0181607	-0.322665	0.255714	0.0914411	0	0	-0.603484	-0.0487782	0.0676018	-0.344665	-0.494372	0.288511	1.53818	1.46487	0	0	-0.227258	-0.645551	0.321094	1.64193	1.38395	0	0
6.73	-2.90129	1.27741	-1.70453	0.759575	0.751914	0.961895	-0.471929	0.0051007	-0.210226	0.0860549	0.14263	0	0	-0.233598	-0.0171867	-0.322223	0.2563	0.0918516	0	0	-0.601684	-0.0494945	0.0672112	-0.348571	-0.494618	0.27396	1.55304	1.46564	0	0	-0.227528	-0.643969	0.311228	1.65181	1.37946	0	0
6.74	-2.89941	1.27718	-1.70641	0.759184	0.75237	0.961872	-0.474692	0.00442464	-0.209431	0.0824085	0.141482	0	0	-0.234022	-0.0164724	-0.323128	0.257054	0.0931279	0	0	-0.600074	-0.0502201	0.0669978	-0.351338	-0.496172	0.260249	1.56889	1.46415	0	0	-0.22639	-0.642058	0.301799	1.66193	1.37401	0	0
6.75	-2.89752	1.27715	-1.70808	0.758687	0.752804	0.96179	-0.477466	0.00373372	-0.209087	0.0784029	0.140584	0	0	-0.234292	-0.0158676	-0.324453	0.257861	0.0948127	0	0	-0.598308	-0.0507538	0.0665495	-0.352752	-0.498919	0.247696	1.58521	1.4599	0	0	-0.223925	-0.639819	0.292526	1.67215	1.36808	0	0
6.76	-2.89147	1.27749	-1.71274	0.759071	0.752566	0.962027	-0.478537	0.00391446	-0.208878	0.07444	0.138376	0	0	-0.235911	-0.0146489	-0.331719	0.251278	0.0907334	0	0	-0.598134	-0.0538484	0.0642199	-0.348744	-0.500484	0.239477	1.59914	1.45228	0	0	-0.218849	-0.640742	0.282786	1.68387	1.36289	0	0
6.77	-2.89256	1.27741	-1.71193	0.75875	0.752939	0.961948	-0.481888	0.0044153	-0.208101	0.0690093	0.13636	0	0	-0.236075	-0.014698	-0.331715	0.252303	0.0916516	0	0	-0.5968	-0.054221	0.0641779	-0.34624	-0.506728	0.23228	1.61562	1.44268	0	0	-0.214132	-0.639473	0.274409	1.69569	1.35845	0	0
6.78	-2.90049	1.27658	-1.70612	0.757802	0.753923	0.961609	-0.488023	0.00507597	-0.205744	0.0619459	0.135259	0	0	-0.235129	-0.0158904	-0.323931	0.260872	0.0972064	0	0	-0.594634	-0.0522484	0.0664591	-0.344939	-0.517201	0.226139	1.63401	1.43016	0	0	-0.209727	-0.636364	0.268058	1.70763	1.3542	0	0
6.79	-2.90341	1.27648	-1.70392	0.757705	0.75419	0.961542	-0.49169	0.00624355	-0.203397	0.0559059	0.133231	0	0	-0.234844	-0.0166636	-0.323112	0.262701	0.0978892	0	0	-0.59377	-0.0528003	0.0665801	-0.338576	-0.525973	0.223402	1.64928	1.41756	0	0	-0.202523	-0.636707	0.262913	1.71868	1.35273	0	0
6.8	-2.90614	1.27697	-1.70189	0.757543	0.754388	0.961438	-0.494475	0.00724569	-0.201335	0.0502266	0.131355	0	0	-0.234606	-0.0171297	-0.322328	0.263067	0.0989711	0	0	-0.592567	-0.0531289	0.0667215	-0.330932	-0.535766	0.221884	1.66302	1.40238	0	0	-0.19386	-0.63746	0.261439	1.72502	1.35344	0	0
6.81	-2.90776	1.27755	-1.70081	0.757293	0.754526	0.961343	-0.496989	0.00781857	-0.199909	0.0446775	0.129235	0	0	-0.234261	-0.0173915	-0.324038	0.263218	0.0999247	0	0	-0.591389	-0.0535221	0.0665995	-0.321581	-0.546663	0.222592	1.67319	1.3815	0	0	-0.183075	-0.638363	0.263818	1.72543	1.35244	0	0
6.82	-2.90859	1.27788	-1.70066	0.757033	0.754607	0.96131	-0.499643	0.00797879	-0.198396	0.039085	0.127093	0	0	-0.234064	-0.0171706	-0.325056	0.263364	0.0998323	0	0	-0.590721	-0.0542493	0.0667142	-0.310706	-0.558167	0.225718	1.67917	1.35997	0	0	-0.171303	-0.639063	0.26852	1.72114	1.3451	0	0
6.83	-2.91063	1.27832	-1.69959	0.756795	0.754644	0.961266	-0.502033	0.00843075	-0.196656	0.0336892	0.125352	0	0	-0.233688	-0.017118	-0.324717	0.263596	0.0997237	0	0	-0.590239	-0.0548769	0.0674355	-0.298887	-0.569998	0.231282	1.68197	1.34501	0	0	-0.159334	-0.639227	0.273281	1.71347	1.33762	0	0
6.84	-2.91494	1.27887	-1.69648	0.75672	0.754672	0.96117	-0.504274	0.00967206	-0.194187	0.0283007	0.122973	0	0	-0.232649	-0.0179763	-0.324141	0.26497	0.10028	0	0	-0.589974	-0.0553591	0.0685777	-0.286248	-0.58165	0.240116	1.68221	1.33413	0	0	-0.146624	-0.639353	0.277183	1.70483	1.33071	0	0
6.85	-2.91889	1.27864	-1.69363	0.756605	0.75464	0.961128	-0.50717	0.0105652	-0.192008	0.0233028	0.120055	0	0	-0.231802	-0.0189932	-0.325013	0.267484	0.101321	0	0	-0.590851	-0.0559413	0.0693876	-0.272186	-0.593585	0.252071	1.67973	1.32555	0	0	-0.132357	-0.639463	0.280772	1.69785	1.32491	0	0
